# Blender v2.80 (sub 75) OBJ File: 'Base.blend'
# www.blender.org
mtllib Base.mtl
o Cube
v 25.000000 -0.948670 -25.000000
v 25.000000 -1.000000 -25.000000
v 25.000000 -0.948670 25.000000
v 25.000000 -1.000000 25.000000
v -25.000000 -0.948670 -25.000000
v -25.000000 -1.000000 -25.000000
v -25.000000 -0.948670 25.000000
v -25.000000 -1.000000 25.000000
v -25.000000 -1.000000 0.000000
v 25.000000 -0.948670 0.000000
v -25.000000 -0.948670 0.000000
v 25.000000 -1.000000 0.000000
v 0.000000 -1.000000 -25.000000
v 0.000000 -0.948670 25.000000
v 0.000000 -1.000000 25.000000
v 0.000000 -0.948670 -25.000000
v 0.000000 -1.000000 0.000000
v 0.000000 1.000000 0.000000
v -25.000000 -0.948670 -12.500000
v 25.000000 -1.000000 -12.500000
v -25.000000 -1.000000 -12.500000
v 25.000000 -0.948670 -12.500000
v 0.000000 1.000000 -12.500000
v 0.000000 -1.000000 -12.500000
v -25.000000 -1.000000 12.500000
v 25.000000 -0.948670 12.500000
v -25.000000 -0.948670 12.500000
v 25.000000 -1.000000 12.500000
v 0.000000 -1.000000 12.500000
v 0.000000 1.000000 12.500000
v 12.500000 -1.000000 25.000000
v 12.500000 -0.948670 -25.000000
v 12.500000 1.000000 0.000000
v 12.500000 -1.000000 -25.000000
v 12.500000 -0.948670 25.000000
v 12.500000 -1.000000 0.000000
v 12.500000 1.000000 -12.500000
v 12.500000 -1.000000 -12.500000
v 12.500000 1.000000 12.500000
v 12.500000 -1.000000 12.500000
v -12.500000 -1.000000 -25.000000
v -12.500000 -0.948670 25.000000
v -12.500000 -1.000000 0.000000
v -12.500000 -1.000000 25.000000
v -12.500000 -0.948670 -25.000000
v -12.500000 1.000000 0.000000
v -12.500000 -1.000000 -12.500000
v -12.500000 1.000000 -12.500000
v -12.500000 -1.000000 12.500000
v -12.500000 1.000000 12.500000
v -25.000000 -1.000000 18.617262
v 25.000000 -0.948670 18.617262
v 0.000000 -1.000000 18.617262
v 0.000000 0.496608 18.617262
v -25.000000 -0.948670 18.617262
v 25.000000 -1.000000 18.617262
v 12.500000 0.496608 18.617262
v 12.500000 -1.000000 18.617262
v -12.500000 -1.000000 18.617262
v -12.500000 0.496608 18.617262
v -25.000000 -0.948670 6.250000
v 25.000000 -1.000000 6.250000
v -25.000000 -1.000000 6.250000
v 25.000000 -0.948670 6.250000
v 0.000000 -1.000000 6.250000
v 0.000000 1.000000 6.250000
v 12.500000 -1.000000 6.250000
v 12.500000 1.000000 6.250000
v -12.500000 1.000000 6.250000
v -12.500000 -1.000000 6.250000
v -25.000000 -1.000000 -6.250000
v 25.000000 -0.948670 -6.250000
v 0.000000 1.000000 -6.250000
v 0.000000 -1.000000 -6.250000
v -25.000000 -0.948670 -6.250000
v 25.000000 -1.000000 -6.250000
v 12.500000 1.000000 -6.250000
v 12.500000 -1.000000 -6.250000
v -12.500000 -1.000000 -6.250000
v -12.500000 1.000000 -6.250000
v -25.000000 -0.948670 -18.750000
v 25.000000 -1.000000 -18.750000
v -25.000000 -1.000000 -18.750000
v 25.000000 -0.948670 -18.750000
v 0.000000 0.496608 -18.750000
v 0.000000 -1.000000 -18.750000
v 12.500000 -1.000000 -18.750000
v 12.500000 0.496608 -18.750000
v -12.500000 0.496608 -18.750000
v -12.500000 -1.000000 -18.750000
v 18.750000 -1.000000 25.000000
v 18.750000 -0.948670 -25.000000
v 18.750000 0.496608 0.000000
v 18.750000 0.496608 -12.500000
v 18.750000 0.496608 12.500000
v 18.750000 -1.000000 -25.000000
v 18.750000 -0.948670 25.000000
v 18.750000 -1.000000 0.000000
v 18.750000 -1.000000 -12.500000
v 18.750000 -1.000000 12.500000
v 18.750000 0.496608 18.617262
v 18.750000 -1.000000 18.617262
v 18.750000 0.496608 6.250000
v 18.750000 -1.000000 6.250000
v 18.750000 0.496608 -6.250000
v 18.750000 -1.000000 -6.250000
v 18.750000 0.496608 -18.750000
v 18.750000 -1.000000 -18.750000
v 6.250000 -1.000000 -25.000000
v 6.250000 -0.948670 25.000000
v 6.250000 -1.000000 0.000000
v 6.250000 -1.000000 -12.500000
v 6.250000 -1.000000 12.500000
v 6.250000 -1.000000 25.000000
v 6.250000 -0.948670 -25.000000
v 6.250000 1.000000 0.000000
v 6.250000 1.000000 -12.500000
v 6.250000 1.000000 12.500000
v 6.250000 -1.000000 18.617262
v 6.250000 0.496608 18.617262
v 6.250000 -1.000000 6.250000
v 6.250000 1.000000 6.250000
v 6.250000 -1.000000 -6.250000
v 6.250000 1.000000 -6.250000
v 6.250000 -1.000000 -18.750000
v 6.250000 0.496608 -18.750000
v -6.250000 -1.000000 25.000000
v -6.250000 -0.948670 -25.000000
v -6.250000 1.000000 0.000000
v -6.250000 1.000000 -12.500000
v -6.250000 1.000000 12.500000
v -6.250000 -1.000000 -25.000000
v -6.250000 -0.948670 25.000000
v -6.250000 -1.000000 0.000000
v -6.250000 -1.000000 -12.500000
v -6.250000 -1.000000 12.500000
v -6.250000 0.496608 18.617262
v -6.250000 -1.000000 18.617262
v -6.250000 1.000000 6.250000
v -6.250000 -1.000000 6.250000
v -6.250000 1.000000 -6.250000
v -6.250000 -1.000000 -6.250000
v -6.250000 0.496608 -18.750000
v -6.250000 -1.000000 -18.750000
v -18.750000 -1.000000 -25.000000
v -18.750000 -0.948670 25.000000
v -18.750000 -1.000000 0.000000
v -18.750000 -1.000000 -12.500000
v -18.750000 -1.000000 12.500000
v -18.750000 -1.000000 25.000000
v -18.750000 -0.948670 -25.000000
v -18.750000 0.496608 0.000000
v -18.750000 0.496608 -12.500000
v -18.750000 0.496608 12.500000
v -18.750000 -1.000000 18.617262
v -18.750000 0.496608 18.617262
v -18.750000 -1.000000 6.250000
v -18.750000 0.496608 6.250000
v -18.750000 -1.000000 -6.250000
v -18.750000 0.496608 -6.250000
v -18.750000 -1.000000 -18.750000
v -18.750000 0.496608 -18.750000
vt 0.593750 0.218086
vt 0.625000 0.218086
vt 0.625000 0.250000
vt 0.593750 0.250000
vt 0.375000 0.468750
vt 0.625000 0.468750
vt 0.625000 0.500000
vt 0.375000 0.500000
vt 0.375000 0.718750
vt 0.625000 0.718750
vt 0.625000 0.750000
vt 0.375000 0.750000
vt 0.593750 0.968086
vt 0.625000 0.968086
vt 0.625000 1.000000
vt 0.593750 1.000000
vt 0.125000 0.718086
vt 0.375000 0.718086
vt 0.375000 0.750000
vt 0.125000 0.750000
vt 0.625000 0.718750
vt 0.875000 0.718750
vt 0.875000 0.750000
vt 0.625000 0.750000
vt 0.125000 0.593750
vt 0.375000 0.593750
vt 0.375000 0.625000
vt 0.125000 0.625000
vt 0.593750 0.843750
vt 0.625000 0.843750
vt 0.625000 0.875000
vt 0.593750 0.875000
vt 0.375000 0.593750
vt 0.625000 0.593750
vt 0.625000 0.625000
vt 0.375000 0.625000
vt 0.593750 0.093750
vt 0.625000 0.093750
vt 0.625000 0.125000
vt 0.593750 0.125000
vt 0.468750 0.093750
vt 0.500000 0.093750
vt 0.500000 0.125000
vt 0.468750 0.125000
vt 0.468750 0.843750
vt 0.500000 0.843750
vt 0.500000 0.875000
vt 0.468750 0.875000
vt 0.625000 0.593750
vt 0.875000 0.593750
vt 0.875000 0.625000
vt 0.625000 0.625000
vt 0.468750 0.968086
vt 0.500000 0.968086
vt 0.500000 1.000000
vt 0.468750 1.000000
vt 0.375000 0.343750
vt 0.625000 0.343750
vt 0.625000 0.375000
vt 0.375000 0.375000
vt 0.468750 0.218086
vt 0.500000 0.218086
vt 0.500000 0.250000
vt 0.468750 0.250000
vt 0.468750 0.781250
vt 0.500000 0.781250
vt 0.500000 0.812500
vt 0.468750 0.812500
vt 0.468750 0.031250
vt 0.500000 0.031250
vt 0.500000 0.062500
vt 0.468750 0.062500
vt 0.593750 0.031250
vt 0.625000 0.031250
vt 0.625000 0.062500
vt 0.593750 0.062500
vt 0.593750 0.781250
vt 0.625000 0.781250
vt 0.625000 0.812500
vt 0.593750 0.812500
vt 0.125000 0.531250
vt 0.375000 0.531250
vt 0.375000 0.562500
vt 0.125000 0.562500
vt 0.375000 0.656250
vt 0.625000 0.656250
vt 0.625000 0.687500
vt 0.375000 0.687500
vt 0.468750 0.156250
vt 0.500000 0.156250
vt 0.500000 0.187500
vt 0.468750 0.187500
vt 0.468750 0.906250
vt 0.500000 0.906250
vt 0.500000 0.937500
vt 0.468750 0.937500
vt 0.375000 0.531914
vt 0.625000 0.531914
vt 0.625000 0.562500
vt 0.375000 0.562500
vt 0.125000 0.656250
vt 0.375000 0.656250
vt 0.375000 0.687500
vt 0.125000 0.687500
vt 0.593750 0.906250
vt 0.625000 0.906250
vt 0.625000 0.937500
vt 0.593750 0.937500
vt 0.593750 0.156250
vt 0.625000 0.156250
vt 0.625000 0.187500
vt 0.593750 0.187500
vt 0.531250 0.906250
vt 0.562500 0.906250
vt 0.562500 0.937500
vt 0.531250 0.937500
vt 0.406250 0.156250
vt 0.437500 0.156250
vt 0.437500 0.187500
vt 0.406250 0.187500
vt 0.531250 0.781250
vt 0.562500 0.781250
vt 0.562500 0.812500
vt 0.531250 0.812500
vt 0.406250 0.031250
vt 0.437500 0.031250
vt 0.437500 0.062500
vt 0.406250 0.062500
vt 0.406250 0.218086
vt 0.437500 0.218086
vt 0.437500 0.250000
vt 0.406250 0.250000
vt 0.375000 0.281250
vt 0.625000 0.281250
vt 0.625000 0.312500
vt 0.375000 0.312500
vt 0.406250 0.093750
vt 0.437500 0.093750
vt 0.437500 0.125000
vt 0.406250 0.125000
vt 0.531250 0.843750
vt 0.562500 0.843750
vt 0.562500 0.875000
vt 0.531250 0.875000
vt 0.625000 0.656250
vt 0.875000 0.656250
vt 0.875000 0.687500
vt 0.625000 0.687500
vt 0.531250 0.968086
vt 0.562500 0.968086
vt 0.562500 1.000000
vt 0.531250 1.000000
vt 0.531250 0.156250
vt 0.562500 0.156250
vt 0.562500 0.187500
vt 0.531250 0.187500
vt 0.406250 0.906250
vt 0.437500 0.906250
vt 0.437500 0.937500
vt 0.406250 0.937500
vt 0.531250 0.031250
vt 0.562500 0.031250
vt 0.562500 0.062500
vt 0.531250 0.062500
vt 0.406250 0.781250
vt 0.437500 0.781250
vt 0.437500 0.812500
vt 0.406250 0.812500
vt 0.406250 0.968086
vt 0.437500 0.968086
vt 0.437500 1.000000
vt 0.406250 1.000000
vt 0.625000 0.531250
vt 0.875000 0.531250
vt 0.875000 0.562500
vt 0.625000 0.562500
vt 0.406250 0.843750
vt 0.437500 0.843750
vt 0.437500 0.875000
vt 0.406250 0.875000
vt 0.531250 0.093750
vt 0.562500 0.093750
vt 0.562500 0.125000
vt 0.531250 0.125000
vt 0.375000 0.406250
vt 0.625000 0.406250
vt 0.625000 0.437500
vt 0.375000 0.437500
vt 0.531250 0.218086
vt 0.562500 0.218086
vt 0.562500 0.250000
vt 0.531250 0.250000
vt 0.406250 0.750000
vt 0.437500 0.750000
vt 0.531250 0.000000
vt 0.562500 0.000000
vt 0.406250 0.000000
vt 0.437500 0.000000
vt 0.531250 0.750000
vt 0.562500 0.750000
vt 0.125000 0.500000
vt 0.375000 0.500000
vt 0.593750 0.750000
vt 0.593750 0.000000
vt 0.625000 0.000000
vt 0.468750 0.000000
vt 0.500000 0.000000
vt 0.468750 0.750000
vt 0.500000 0.750000
vt 0.375000 0.000000
vt 0.375000 0.031250
vt 0.375000 0.062500
vt 0.375000 0.093750
vt 0.375000 0.125000
vt 0.375000 0.156250
vt 0.375000 0.187500
vt 0.375000 0.218086
vt 0.375000 0.250000
vt 0.625000 0.250000
vt 0.375000 0.250000
vt 0.375000 0.781250
vt 0.375000 0.812500
vt 0.375000 0.843750
vt 0.375000 0.875000
vt 0.375000 0.906250
vt 0.375000 0.937500
vt 0.375000 0.968086
vt 0.625000 0.500000
vt 0.875000 0.500000
vt 0.375000 1.000000
vn -0.1141 0.9872 0.1118
vn 0.0000 0.0000 1.0000
vn -1.0000 0.0000 0.0000
vn 0.0000 -1.0000 0.0000
vn 1.0000 0.0000 0.0000
vn 0.0000 0.0000 -1.0000
vn -0.2253 0.9743 0.0000
vn 0.0000 1.0000 0.0000
vn 0.0000 0.9753 0.2208
vn 0.0000 0.9968 -0.0803
vn 0.0803 0.9968 0.0000
vn 0.0402 0.9984 -0.0402
vn 0.0000 0.9966 0.0820
vn 0.0402 0.9983 0.0411
vn 0.0000 0.9743 -0.2253
vn -0.1141 0.9869 -0.1141
vn 0.1141 0.9869 -0.1141
vn 0.2253 0.9743 0.0000
vn 0.1141 0.9872 0.1118
vn -0.0803 0.9968 0.0000
vn -0.0402 0.9983 0.0411
vn -0.0402 0.9984 -0.0402
usemtl Material
s off
f 156/1/1 55/2/1 7/3/1 146/4/1
f 150/5/2 146/6/2 7/7/2 8/8/2
f 83/9/3 81/10/3 5/11/3 6/12/3
f 102/13/4 56/14/4 4/15/4 91/16/4
f 56/17/5 52/18/5 3/19/5 4/20/5
f 96/21/6 92/22/6 1/23/6 2/24/6
f 76/25/5 72/26/5 10/27/5 12/28/5
f 106/29/4 76/30/4 12/31/4 98/32/4
f 63/33/3 61/34/3 11/35/3 9/36/3
f 160/37/7 75/38/7 11/39/7 152/40/7
f 124/41/8 73/42/8 18/43/8 116/44/8
f 142/45/4 74/46/4 17/47/4 134/48/4
f 132/49/6 128/50/6 16/51/6 13/52/6
f 138/53/4 53/54/4 15/55/4 127/56/4
f 114/57/2 110/58/2 14/59/2 15/60/2
f 120/61/9 54/62/9 14/63/9 110/64/9
f 144/65/4 86/66/4 24/67/4 135/68/4
f 126/69/10 85/70/10 23/71/10 117/72/10
f 162/73/7 81/74/7 19/75/7 153/76/7
f 108/77/4 82/78/4 20/79/4 99/80/4
f 82/81/5 84/82/5 22/83/5 20/84/5
f 71/85/3 75/86/3 19/87/3 21/88/3
f 122/89/8 66/90/8 30/91/8 118/92/8
f 140/93/4 65/94/4 29/95/4 136/96/4
f 51/97/3 55/98/3 27/99/3 25/100/3
f 62/101/5 64/102/5 26/103/5 28/104/5
f 104/105/4 62/106/4 28/107/4 100/108/4
f 158/109/7 61/110/7 27/111/7 154/112/7
f 121/113/4 67/114/4 40/115/4 113/116/4
f 103/117/11 68/118/11 39/119/11 95/120/11
f 125/121/4 87/122/4 38/123/4 112/124/4
f 107/125/12 88/126/12 37/127/12 94/128/12
f 101/129/9 57/130/9 35/131/9 97/132/9
f 91/133/2 97/134/2 35/135/2 31/136/2
f 105/137/11 77/138/11 33/139/11 93/140/11
f 123/141/4 78/142/4 36/143/4 111/144/4
f 109/145/6 115/146/6 32/147/6 34/148/6
f 119/149/4 58/150/4 31/151/4 114/152/4
f 139/153/8 69/154/8 50/155/8 131/156/8
f 157/157/4 70/158/4 49/159/4 149/160/4
f 143/161/10 89/162/10 48/163/10 130/164/10
f 161/165/4 90/166/4 47/167/4 148/168/4
f 155/169/4 59/170/4 44/171/4 150/172/4
f 145/173/6 151/174/6 45/175/6 41/176/6
f 159/177/4 79/178/4 43/179/4 147/180/4
f 141/181/8 80/182/8 46/183/8 129/184/8
f 127/185/2 133/186/2 42/187/2 44/188/2
f 137/189/9 60/190/9 42/191/9 133/192/9
f 131/156/13 50/155/13 60/190/13 137/189/13
f 149/160/4 49/159/4 59/170/4 155/169/4
f 113/116/4 40/115/4 58/150/4 119/149/4
f 95/120/14 39/119/14 57/130/14 101/129/14
f 8/8/3 7/7/3 55/98/3 51/97/3
f 118/92/13 30/91/13 54/62/13 120/61/13
f 136/96/4 29/95/4 53/54/4 138/53/4
f 28/104/5 26/103/5 52/18/5 56/17/5
f 100/108/4 28/107/4 56/14/4 102/13/4
f 154/112/7 27/111/7 55/2/7 156/1/7
f 147/180/4 43/179/4 70/158/4 157/157/4
f 129/184/8 46/183/8 69/154/8 139/153/8
f 93/140/11 33/139/11 68/118/11 103/117/11
f 111/144/4 36/143/4 67/114/4 121/113/4
f 152/40/7 11/39/7 61/110/7 158/109/7
f 98/32/4 12/31/4 62/106/4 104/105/4
f 12/28/5 10/27/5 64/102/5 62/101/5
f 134/48/4 17/47/4 65/94/4 140/93/4
f 116/44/8 18/43/8 66/90/8 122/89/8
f 25/100/3 27/99/3 61/34/3 63/33/3
f 130/164/8 48/163/8 80/182/8 141/181/8
f 148/168/4 47/167/4 79/178/4 159/177/4
f 112/124/4 38/123/4 78/142/4 123/141/4
f 94/128/11 37/127/11 77/138/11 105/137/11
f 9/36/3 11/35/3 75/86/3 71/85/3
f 135/68/4 24/67/4 74/46/4 142/45/4
f 117/72/8 23/71/8 73/42/8 124/41/8
f 153/76/7 19/75/7 75/38/7 160/37/7
f 99/80/4 20/79/4 76/30/4 106/29/4
f 20/84/5 22/83/5 72/26/5 76/25/5
f 145/193/4 41/194/4 90/166/4 161/165/4
f 128/195/15 45/196/15 89/162/15 143/161/15
f 92/197/15 32/198/15 88/126/15 107/125/15
f 109/199/4 34/200/4 87/122/4 125/121/4
f 2/201/5 1/202/5 84/82/5 82/81/5
f 96/203/4 2/24/4 82/78/4 108/77/4
f 151/204/16 5/205/16 81/74/16 162/73/16
f 115/206/15 16/207/15 85/70/15 126/69/15
f 132/208/4 13/209/4 86/66/4 144/65/4
f 21/88/3 19/87/3 81/10/3 83/9/3
f 34/200/4 96/203/4 108/77/4 87/122/4
f 1/210/17 92/197/17 107/125/17 84/211/17
f 38/123/4 99/80/4 106/29/4 78/142/4
f 22/212/18 94/128/18 105/137/18 72/213/18
f 36/143/4 98/32/4 104/105/4 67/114/4
f 10/214/18 93/140/18 103/117/18 64/215/18
f 40/115/4 100/108/4 102/13/4 58/150/4
f 26/216/18 95/120/18 101/129/18 52/217/18
f 72/213/18 105/137/18 93/140/18 10/214/18
f 4/218/2 3/219/2 97/134/2 91/133/2
f 52/217/19 101/129/19 97/132/19 3/220/19
f 84/211/18 107/125/18 94/128/18 22/212/18
f 64/215/18 103/117/18 95/120/18 26/216/18
f 67/114/4 104/105/4 100/108/4 40/115/4
f 87/122/4 108/77/4 99/80/4 38/123/4
f 78/142/4 106/29/4 98/32/4 36/143/4
f 34/148/6 32/147/6 92/22/6 96/21/6
f 58/150/4 102/13/4 91/16/4 31/151/4
f 32/198/15 115/206/15 126/69/15 88/126/15
f 13/209/4 109/199/4 125/121/4 86/66/4
f 37/127/8 117/72/8 124/41/8 77/138/8
f 24/67/4 112/124/4 123/141/4 74/46/4
f 33/139/8 116/44/8 122/89/8 68/118/8
f 17/47/4 111/144/4 121/113/4 65/94/4
f 39/119/13 118/92/13 120/61/13 57/130/13
f 29/95/4 113/116/4 119/149/4 53/54/4
f 53/54/4 119/149/4 114/152/4 15/55/4
f 13/52/6 16/51/6 115/146/6 109/145/6
f 74/46/4 123/141/4 111/144/4 17/47/4
f 86/66/4 125/121/4 112/124/4 24/67/4
f 65/94/4 121/113/4 113/116/4 29/95/4
f 68/118/8 122/89/8 118/92/8 39/119/8
f 88/126/10 126/69/10 117/72/10 37/127/10
f 57/130/9 120/61/9 110/64/9 35/131/9
f 31/136/2 35/135/2 110/58/2 114/57/2
f 77/138/8 124/41/8 116/44/8 33/139/8
f 41/194/4 132/208/4 144/65/4 90/166/4
f 16/207/15 128/195/15 143/161/15 85/70/15
f 47/167/4 135/68/4 142/45/4 79/178/4
f 23/71/8 130/164/8 141/181/8 73/42/8
f 43/179/4 134/48/4 140/93/4 70/158/4
f 18/43/8 129/184/8 139/153/8 66/90/8
f 49/159/4 136/96/4 138/53/4 59/170/4
f 30/91/13 131/156/13 137/189/13 54/62/13
f 54/62/9 137/189/9 133/192/9 14/63/9
f 15/60/2 14/59/2 133/186/2 127/185/2
f 73/42/8 141/181/8 129/184/8 18/43/8
f 85/70/10 143/161/10 130/164/10 23/71/10
f 66/90/8 139/153/8 131/156/8 30/91/8
f 70/158/4 140/93/4 136/96/4 49/159/4
f 90/166/4 144/65/4 135/68/4 47/167/4
f 59/170/4 138/53/4 127/56/4 44/171/4
f 41/176/6 45/175/6 128/50/6 132/49/6
f 79/178/4 142/45/4 134/48/4 43/179/4
f 45/196/15 151/204/15 162/73/15 89/162/15
f 6/12/4 145/193/4 161/165/4 83/221/4
f 48/163/20 153/76/20 160/37/20 80/182/20
f 21/222/4 148/168/4 159/177/4 71/223/4
f 46/183/20 152/40/20 158/109/20 69/154/20
f 9/224/4 147/180/4 157/157/4 63/225/4
f 50/155/21 154/112/21 156/1/21 60/190/21
f 25/226/4 149/160/4 155/169/4 51/227/4
f 71/223/4 159/177/4 147/180/4 9/224/4
f 6/228/6 5/229/6 151/174/6 145/173/6
f 51/227/4 155/169/4 150/172/4 8/230/4
f 83/221/4 161/165/4 148/168/4 21/222/4
f 63/225/4 157/157/4 149/160/4 25/226/4
f 69/154/20 158/109/20 154/112/20 50/155/20
f 89/162/22 162/73/22 153/76/22 48/163/22
f 80/182/20 160/37/20 152/40/20 46/183/20
f 44/188/2 42/187/2 146/6/2 150/5/2
f 60/190/9 156/1/9 146/4/9 42/191/9
